<?xml version="1.0" encoding="UTF-8"?>
<!-- Generated by Pixelmator Pro 3.6.13 -->
<svg width="500" height="500" viewBox="0 0 500 500" xmlns="http://www.w3.org/2000/svg">
    <g id="BackgroundComplete">
        <g id="Group">
            <g id="g1">
                <path id="Path" fill="#ebebeb" stroke="none" d="M 81.431999 299.686005 C 83.970001 301.221008 86.783997 302.384003 89.833 303.085999 C 97.719002 304.914001 105.591003 303.343994 111.917999 299.312012 C 118.107002 295.382996 122.830002 289.104004 124.622002 281.395996 C 128.229004 265.790009 118.525002 250.214005 102.918999 246.606995 C 87.324997 242.987 71.75 252.703995 68.129997 268.309998 C 65.224998 280.865997 70.960999 293.395996 81.431999 299.686005 Z"/>
                <g id="g2">
                    <path id="path1" fill="#ffffff" stroke="none" d="M 87.523003 271.638 C 87.581001 276.51001 91.577003 280.411987 96.448997 280.354004 C 101.320999 280.29599 105.223 276.299988 105.165001 271.428009 C 105.107002 266.556 101.111 262.653992 96.238998 262.710999 C 91.366997 262.769012 87.464996 266.765991 87.523003 271.638 Z"/>
                    <path id="path2" fill="#ffffff" stroke="none" d="M 81.389 296.046997 L 81.431999 299.686005 C 83.970001 301.221008 86.783997 302.384003 89.833 303.085999 C 97.719002 304.914001 105.591003 303.343994 111.917999 299.312012 L 111.875 295.686005 C 111.775002 287.287994 104.874001 280.523987 96.450996 280.623993 C 88.028 280.721985 81.289001 287.648987 81.389 296.046997 Z"/>
                </g>
            </g>
            <g id="g3">
                <path id="path3" fill="#ebebeb" stroke="none" d="M 403.838013 182.158997 C 405.5 183.164978 407.342987 183.925995 409.341003 184.385986 C 414.506989 185.583008 419.661987 184.554993 423.807007 181.914001 C 427.860992 179.339996 430.954987 175.22699 432.127991 170.179016 C 434.490997 159.955994 428.13501 149.753998 417.911987 147.390991 C 407.697998 145.02002 397.496002 151.384003 395.125 161.606995 C 393.221985 169.830994 396.979004 178.039001 403.838013 182.158997 Z"/>
                <g id="g4">
                    <path id="path4" fill="#ffffff" stroke="none" d="M 407.828003 163.786987 C 407.865997 166.977997 410.483002 169.533997 413.674988 169.497009 C 416.865997 169.458984 419.421997 166.841003 419.384003 163.649994 C 419.346008 160.458984 416.727997 157.903015 413.536987 157.940002 C 410.346008 157.977997 407.790009 160.596008 407.828003 163.786987 Z"/>
                    <path id="path5" fill="#ffffff" stroke="none" d="M 403.809998 179.774994 L 403.838013 182.158997 C 405.5 183.164978 407.342987 183.925995 409.341003 184.385986 C 414.506989 185.583008 419.661987 184.554993 423.807007 181.914001 L 423.778992 179.539001 C 423.713989 174.037994 419.192993 169.606995 413.675995 169.673004 C 408.158997 169.738007 403.744995 174.273987 403.809998 179.774994 Z"/>
                </g>
            </g>
        </g>
        <g id="g5">
            <path id="path6" fill="#ebebeb" stroke="none" d="M 214.906998 134.153015 L 88.267998 134.153015 L 88.267998 47.513 L 214.906998 47.513 L 214.906998 134.153015 Z M 89.267998 133.153015 L 213.906998 133.153015 L 213.906998 48.513 L 89.267998 48.513 L 89.267998 133.153015 Z"/>
            <g id="g6">
                <path id="path7" fill="#a6a6a6" stroke="none" d="M 98.168999 53.095001 C 98.168999 54.487 97.040001 55.615997 95.648003 55.615997 C 94.255997 55.615997 93.126999 54.488007 93.126999 53.095001 C 93.126999 51.703003 94.254997 50.574005 95.648003 50.574005 C 97.041 50.575012 98.168999 51.703003 98.168999 53.095001 Z"/>
                <path id="path8" fill="#ebebeb" stroke="none" d="M 108.461998 53.095001 C 108.461998 54.487 107.334 55.615997 105.941002 55.615997 C 104.549004 55.615997 103.419998 54.488007 103.419998 53.095001 C 103.419998 51.703003 104.547997 50.574005 105.941002 50.574005 C 107.333 50.575012 108.461998 51.703003 108.461998 53.095001 Z"/>
                <path id="path9" fill="#ffc727" stroke="none" d="M 118.753998 53.095001 C 118.753998 54.487 117.625999 55.615997 116.233002 55.615997 C 114.841003 55.615997 113.711998 54.488007 113.711998 53.095001 C 113.711998 51.703003 114.839996 50.574005 116.233002 50.574005 C 117.625999 50.575012 118.753998 51.703003 118.753998 53.095001 Z"/>
            </g>
            <path id="path10" fill="#ebebeb" stroke="none" d="M 88.767998 57.532013 L 214.406998 57.532013 L 214.406998 58.532013 L 88.767998 58.532013 Z"/>
        </g>
        <g id="g7">
            <g id="g8">
                <g id="g9">
                    <path id="path11" fill="#ebebeb" stroke="none" d="M 60.972729 160.191956 L 126.952087 151.195374 L 132.657486 193.037842 L 66.678131 202.034424 Z"/>
                    <g id="g10">
                        <path id="path12" fill="#ffffff" stroke="none" d="M 126.959 151.197998 C 124.640999 154.109985 122.259003 156.921021 119.916 159.794983 C 117.544998 162.617981 115.165001 165.442993 112.771004 168.240997 C 110.273003 171.164001 107.761002 174.061005 105.248001 176.945007 C 105.169998 177.037994 105.101997 177.130005 105.024002 177.223022 C 102.796997 179.765015 100.559998 182.309998 98.322998 184.852997 L 97.988998 185.213989 L 97.580002 184.953979 C 94.744003 183.10199 91.917 181.247986 89.088997 179.380981 C 88.990997 179.325989 88.889999 179.257019 88.790001 179.187988 C 85.585999 177.083984 82.389999 174.964996 79.198997 172.804016 C 76.154999 170.760986 73.105003 168.677002 70.066002 166.591003 C 67.039001 164.449005 63.991001 162.378998 60.978001 160.192993 C 64.110001 161.990997 67.207001 163.903992 70.316002 165.76001 C 73.420998 167.65802 76.526001 169.556 79.616997 171.497009 C 83.057999 173.636993 86.503998 175.817993 89.944 178.028015 C 89.954002 178.026978 89.954002 178.026978 89.966003 178.039001 C 92.541 179.679016 95.117996 181.333008 97.695999 182.987 C 99.725998 180.705017 101.764999 178.40802 103.808998 176.151001 C 103.815002 176.122986 103.815002 176.122986 103.824997 176.121002 C 106.550003 173.085022 109.276001 170.062012 112.027 167.062988 C 114.487 164.378998 116.959 161.707001 119.444 159.059998 C 121.950996 156.440979 124.422997 153.768982 126.959 151.197998 Z"/>
                        <path id="path13" fill="#ffffff" stroke="none" d="M 90.172997 178.970001 C 90.146004 178.994019 90.129997 179.026001 90.102997 179.049988 C 89.796997 179.39502 89.489998 179.739014 89.182999 180.074005 C 87.719002 181.697021 86.207001 183.265015 84.660004 184.799011 C 82.778 186.690979 80.836998 188.52002 78.886002 190.339996 C 76.919998 192.132019 74.943001 193.916016 72.907997 195.647003 C 70.873001 197.377991 68.814003 199.082001 66.660004 200.677002 C 68.421997 198.649994 70.279999 196.731995 72.163002 194.850006 C 74.055 192.957001 75.995003 191.127991 77.936996 189.309021 C 79.912003 187.505981 81.889 185.721985 83.924004 183.990997 C 85.542 182.609985 87.193001 181.244019 88.892998 179.942017 C 89.285004 179.635986 89.679001 179.339996 90.082001 179.042999 C 90.109001 179.018982 90.146004 178.994019 90.172997 178.970001 Z"/>
                        <path id="path14" fill="#ffffff" stroke="none" d="M 132.324005 191.721985 C 129.820999 190.760986 127.372002 189.671997 124.957001 188.548004 C 122.532997 187.424988 120.150002 186.235992 117.766998 185.036987 C 115.399002 183.806 113.039001 182.562988 110.720001 181.244019 C 108.829002 180.179993 106.953003 179.083008 105.117996 177.910004 C 104.721001 177.661011 104.333 177.411011 103.945999 177.161011 C 103.914001 177.14502 103.889999 177.117981 103.857002 177.10199 C 103.889 177.117981 103.931999 177.132019 103.962997 177.138 C 104.432999 177.325989 104.890999 177.505981 105.350998 177.695984 C 107.336998 178.494995 109.282997 179.369995 111.222 180.265991 C 113.646004 181.389008 116.028999 182.578003 118.403999 183.787994 C 120.772003 185.018982 123.132004 186.261993 125.450996 187.580994 C 127.778999 188.890015 130.082993 190.240997 132.324005 191.721985 Z"/>
                    </g>
                </g>
            </g>
            <g id="g11">
                <g id="g12">
                    <path id="path15" fill="#ebebeb" stroke="none" d="M 320.941132 313.963257 L 336.348206 248.862869 L 439.002472 273.157684 L 423.595398 338.258057 Z"/>
                    <g id="g13">
                        <path id="path16" fill="#ffffff" stroke="none" d="M 439.022003 273.166992 C 433.936005 276.151001 428.813995 278.947998 423.712006 281.860992 C 418.598999 284.683014 413.471985 287.502014 408.338013 290.273987 C 402.980011 293.17099 397.617004 296.022003 392.257996 298.852997 C 392.089996 298.946014 391.937012 299.042999 391.768005 299.135986 C 387.027008 301.625 382.272003 304.110992 377.515991 306.596008 L 376.81601 306.940002 L 376.359985 306.322998 C 373.222992 301.968994 370.101013 297.618988 366.984985 293.247986 C 366.871002 293.109985 366.761993 292.950989 366.653015 292.792999 C 363.117004 287.856995 359.600006 282.903992 356.114014 277.891998 C 352.778992 273.136993 349.459015 268.319 346.153992 263.503998 C 342.899994 258.613007 339.575012 253.815994 336.367004 248.869003 C 339.971008 253.311005 343.459015 257.903015 346.997009 262.417999 C 350.505005 266.993011 354.013 271.566986 357.475006 276.196991 C 361.341003 281.321991 365.192993 286.509003 369.019012 291.734985 C 369.033997 291.739014 369.033997 291.739014 369.045013 291.764008 C 371.916992 295.656006 374.783997 299.569 377.651001 303.481995 C 381.953003 301.265991 386.273987 299.032013 390.580994 296.860992 C 390.606995 296.822998 390.606995 296.822998 390.622009 296.825989 C 396.380005 293.890991 402.131989 290.97699 407.906006 288.110992 C 413.071991 285.545013 418.247986 283.003998 423.428986 280.509003 C 428.632996 278.063995 433.80899 275.522003 439.022003 273.166992 Z"/>
                        <path id="path17" fill="#ffffff" stroke="none" d="M 368.822998 293.255005 C 368.769989 293.274994 368.727997 293.313995 368.674011 293.334015 C 368.024994 293.669006 367.376007 294.002991 366.730011 294.322998 C 363.640991 295.886993 360.511993 297.343994 357.35199 298.729004 C 353.493011 300.453003 349.582001 302.049988 345.658997 303.628998 C 341.731995 305.15799 337.792999 306.666992 333.799011 308.06601 C 329.804993 309.464996 325.790985 310.809998 321.697998 311.94101 C 325.458008 309.950012 329.296997 308.171997 333.153015 306.463989 C 337.028015 304.743988 340.938995 303.145996 344.846008 301.563995 C 348.791992 300.023987 352.730988 298.514008 356.725006 297.11499 C 359.903992 295.996002 363.122009 294.917999 366.377014 293.962006 C 367.131012 293.733002 367.881012 293.519989 368.647003 293.311005 C 368.700989 293.290985 368.769012 293.274994 368.822998 293.255005 Z"/>
                        <path id="path18" fill="#ffffff" stroke="none" d="M 423.859985 336.122986 C 420.708008 333.277008 417.708008 330.270996 414.779999 327.234009 C 411.837006 324.192993 408.993011 321.078003 406.152008 317.946991 C 403.352997 314.778015 400.574005 311.596008 397.897003 308.325012 C 395.708008 305.674011 393.561005 302.984009 391.515991 300.204987 C 391.070007 299.610992 390.640015 299.020996 390.209991 298.431 C 390.17099 298.389008 390.151001 298.335999 390.112 298.294006 C 390.151001 298.335999 390.204987 298.381012 390.247986 298.40799 C 390.834991 298.95401 391.410004 299.480988 391.981995 300.02301 C 394.463013 302.335999 396.839996 304.738007 399.196014 307.167999 C 402.139008 310.209015 404.983002 313.324005 407.804993 316.466003 C 410.604004 319.63501 413.382996 322.816986 416.059998 326.088013 C 418.756989 329.347992 421.391998 332.657013 423.859985 336.122986 Z"/>
                    </g>
                </g>
            </g>
            <g id="g14">
                <g id="g15">
                    <path id="path19" fill="#ebebeb" stroke="none" d="M 355.971008 38.959991 L 416.578003 38.959991 L 416.578003 77.395996 L 355.971008 77.395996 Z"/>
                    <g id="g16">
                        <path id="path20" fill="#ffffff" stroke="none" d="M 416.578003 38.959991 C 414.130005 41.300995 411.635986 43.542999 409.169006 45.846985 C 406.68399 48.101013 404.19101 50.355988 401.687988 52.584991 C 399.075989 54.914001 396.454987 57.21701 393.833008 59.509003 C 393.751007 59.583008 393.678009 59.65799 393.596985 59.731995 C 391.276001 61.751007 388.946014 63.769989 386.615997 65.789001 L 386.269989 66.074005 L 385.933014 65.789001 C 383.602997 63.769989 381.282013 61.751007 378.960999 59.720001 C 378.878998 59.65799 378.796997 59.583984 378.714996 59.51001 C 376.084991 57.217987 373.463013 54.915009 370.851013 52.574005 C 368.356995 50.356995 365.863007 48.102997 363.377991 45.847992 C 360.911987 43.544006 358.417999 41.302002 355.970001 38.960999 C 358.572998 40.967987 361.130005 43.072998 363.705994 45.128998 C 366.27301 47.221985 368.838989 49.31601 371.388 51.445984 C 374.227997 53.799011 377.066986 56.190002 379.89801 58.605011 C 379.907013 58.605011 379.907013 58.605011 379.915985 58.618011 C 382.036987 60.414001 384.157013 62.221985 386.278015 64.031006 C 388.390015 62.222992 390.51001 60.402008 392.631012 58.618011 C 392.640015 58.592987 392.640015 58.592987 392.648987 58.592987 C 395.480011 56.190002 398.309998 53.799988 401.158997 51.43399 C 403.707001 49.31601 406.265015 47.209991 408.832001 45.128998 C 411.417999 43.071991 413.975006 40.96701 416.578003 38.959991 Z"/>
                        <path id="path21" fill="#ffffff" stroke="none" d="M 379.98999 59.480011 C 379.963013 59.497986 379.944 59.526001 379.916992 59.544006 C 379.597992 59.817017 379.279999 60.089996 378.960999 60.354004 C 377.44101 61.636993 375.88501 62.865997 374.300995 64.057983 C 372.371002 65.531982 370.395996 66.942993 368.411987 68.345001 C 366.419006 69.718994 364.415985 71.084991 362.368988 72.394989 C 360.321014 73.705994 358.255005 74.989014 356.115997 76.162994 C 357.954987 74.552002 359.865997 73.049988 361.795013 71.584991 C 363.734009 70.110992 365.709015 68.700012 367.68399 67.298004 C 369.686005 65.915009 371.688995 64.549011 373.735992 63.239014 C 375.36499 62.192017 377.022003 61.164001 378.714996 60.199005 C 379.105988 59.971008 379.497986 59.752991 379.89801 59.533997 C 379.925995 59.516998 379.963013 59.498993 379.98999 59.480011 Z"/>
                        <path id="path22" fill="#ffffff" stroke="none" d="M 416.433014 76.162994 C 414.294006 74.989014 412.218994 73.705994 410.179993 72.394989 C 408.131989 71.083984 406.130005 69.718994 404.127014 68.345001 C 402.143005 66.942993 400.167999 65.53299 398.238007 64.057983 C 396.664001 62.865997 395.106995 61.645996 393.596008 60.363007 C 393.268005 60.089996 392.950012 59.817017 392.631012 59.544006 C 392.604004 59.526001 392.585999 59.497986 392.558014 59.480011 C 392.584991 59.497986 392.622009 59.515991 392.648987 59.526001 C 393.049988 59.752991 393.44101 59.971985 393.832001 60.200012 C 395.524994 61.165009 397.171997 62.192993 398.811005 63.23999 C 400.859009 64.550995 402.860992 65.916016 404.854004 67.299011 C 406.838013 68.700989 408.812988 70.112 410.743011 71.585999 C 412.683014 73.050995 414.593994 74.552002 416.433014 76.162994 Z"/>
                    </g>
                </g>
            </g>
        </g>
    </g>
    <g id="Shadow">
        <path id="path23" fill="#ebebeb" stroke="none" d="M 448.122986 432.273987 C 448.122986 455.39209 359.326752 474.132996 249.791 474.132996 C 140.255264 474.132996 51.459 455.39209 51.459 432.273987 C 51.459 409.155914 140.255264 390.415009 249.791 390.415009 C 359.326752 390.415009 448.122986 409.155914 448.122986 432.273987 Z"/>
    </g>
    <g id="Floor">
        <path id="path24" fill="#263238" stroke="none" d="M 39.970001 370.897003 L 92.477997 370.653992 L 144.985001 370.56601 L 250 370.39801 L 355.015015 370.565002 L 407.522003 370.653015 L 460.028992 370.897003 L 407.522003 371.141998 L 355.015015 371.230011 L 250 371.395996 L 144.985001 371.229004 L 92.477997 371.140991 Z"/>
    </g>
    <g id="Device">
        <g id="g17">
            <g id="g18">
                <path id="path25" fill="#263238" stroke="none" d="M 331.367004 54.54599 L 168.195007 54.54599 C 159.084 54.54599 151.690002 62.065002 151.690002 71.359009 L 151.690002 407.248993 C 151.690002 416.523987 159.082993 424.062012 168.195007 424.062012 L 331.367004 424.062012 C 340.477997 424.062012 347.890991 416.523987 347.890991 407.248993 L 347.890991 71.359009 C 347.890991 62.063995 340.479004 54.54599 331.367004 54.54599 Z M 337.563995 396.864014 C 337.563995 405.704987 330.942993 412.856995 322.778015 412.856995 L 176.804001 412.856995 C 168.619003 412.856995 161.998001 405.704987 161.998001 396.864014 L 161.998001 84.089996 C 161.998001 66.080017 168.619003 65.200989 176.804001 65.200989 L 206.048996 65.200989 C 207.748001 65.200989 209.138 67.130981 209.138 69.524994 L 209.138 70.557983 C 209.138 76.166016 212.207001 76.184998 215.970993 76.184998 L 283.591003 76.184998 C 287.394012 76.184998 290.444 76.166016 290.444 70.557983 L 290.444 69.524994 C 290.444 67.130981 291.815002 65.200989 293.541992 65.200989 L 322.777008 65.200989 C 330.941986 65.200989 337.562988 67.595001 337.562988 84.089996 L 337.562988 396.864014 Z"/>
                <path id="path26" fill="none" stroke="none" d="M 162.003998 377.039001 L 161.453003 377.039001"/>
                <g id="g19">
                    <path id="path27" fill="#ffffff" stroke="none" d="M 337.574005 84.36499 L 337.574005 397.139008 C 337.574005 405.980011 330.953003 413.131989 322.787994 413.131989 L 176.813995 413.131989 C 168.628998 413.131989 162.007996 405.980011 162.007996 397.139008 L 162.007996 84.36499 C 162.007996 66.355011 168.628998 65.47699 176.813995 65.47699 L 206.059006 65.47699 C 207.757996 65.47699 209.147003 67.406982 209.147003 69.800995 L 209.147003 70.833984 C 209.147003 76.442017 212.216003 76.460999 215.981003 76.460999 L 283.601013 76.460999 C 287.403992 76.460999 290.45401 76.442017 290.45401 70.833984 L 290.45401 69.799988 C 290.45401 67.406006 291.825012 65.476013 293.552002 65.476013 L 322.786987 65.476013 C 330.951996 65.476013 337.574005 67.869995 337.574005 84.36499 Z"/>
                    <path id="path28" fill="#e1d6dc" stroke="none" d="M 337.574005 84.367981 L 337.574005 112.744019 L 162.007996 112.744019 L 162.007996 84.367981 C 162.007996 66.358002 168.628998 65.480011 176.813995 65.480011 L 206.059006 65.480011 C 207.757996 65.480011 209.147003 67.410004 209.147003 69.804016 L 209.147003 70.837006 C 209.147003 76.445007 212.216003 76.463989 215.979996 76.463989 L 283.600006 76.463989 C 287.403015 76.463989 290.453003 76.445007 290.453003 70.837006 L 290.453003 69.804016 C 290.453003 67.410004 291.822998 65.480011 293.550995 65.480011 L 322.786011 65.480011 C 330.951996 65.480011 337.574005 67.873993 337.574005 84.367981 Z"/>
                    <path id="path29" fill="#ffffff" stroke="none" d="M 259.01001 69.179993 L 240.565002 69.179993 C 239.936005 69.179993 239.425995 68.669983 239.425995 68.041016 L 239.425995 68.041016 C 239.425995 67.411987 239.936005 66.902008 240.565002 66.902008 L 259.01001 66.902008 C 259.639008 66.902008 260.148987 67.411987 260.148987 68.041016 L 260.148987 68.041016 C 260.148987 68.67099 259.639008 69.179993 259.01001 69.179993 Z"/>
                    <g id="g20">
                        <g id="g21">
                            <g id="u5Zjqx1">
                                <g id="g22">
                                    <path id="path30" fill="#ffffff" stroke="none" d="M 201 72.226013 C 200.906006 72.319 200.811005 72.412994 200.716995 72.507019 C 200.664001 72.559998 200.610001 72.614014 200.557007 72.667999 C 199.798004 71.931 198.893997 71.539001 197.835999 71.537994 C 196.778 71.537994 195.873993 71.929016 195.110001 72.67099 C 195.059998 72.617981 195.009003 72.563995 194.957001 72.511993 C 194.865005 72.417999 194.770996 72.325012 194.677994 72.231995 C 194.675995 72.230011 194.671997 72.229004 194.669006 72.22699 C 194.669006 72.225006 194.669006 72.221985 194.669006 72.220001 C 194.675995 72.213989 194.682999 72.208984 194.690002 72.203003 C 194.809006 72.096985 194.925003 71.988007 195.046997 71.886993 C 195.300003 71.678009 195.578003 71.505005 195.873001 71.359985 C 196.222 71.188995 196.585999 71.062012 196.968002 70.992004 C 197.149002 70.958984 197.332993 70.942017 197.514999 70.919006 C 197.576996 70.911011 197.981995 70.910004 197.994003 70.911011 C 198.117996 70.919983 198.242996 70.925995 198.367004 70.938995 C 198.712006 70.976013 199.046005 71.059998 199.371002 71.179016 C 199.606995 71.265015 199.832993 71.372009 200.050995 71.497009 C 200.281006 71.628998 200.498001 71.778992 200.699997 71.950989 C 200.802002 72.037994 200.899002 72.130005 200.998001 72.218994 C 201 72.221008 201 72.223999 201 72.226013 Z"/>
                                    <path id="path31" fill="#ffffff" stroke="none" d="M 196.007004 73.554993 C 195.858002 73.406982 195.710999 73.261993 195.559998 73.112 C 196.067993 72.613007 196.669998 72.29599 197.376007 72.200012 C 198.432007 72.057007 199.339005 72.377991 200.108002 73.106018 C 199.955994 73.257019 199.809006 73.403992 199.660004 73.552002 C 199.154999 73.062012 198.546997 72.796997 197.834 72.796997 C 197.121994 72.798004 196.514999 73.062012 196.007004 73.554993 Z"/>
                                    <path id="path32" fill="#ffffff" stroke="none" d="M 199.214005 74.001007 C 199.067001 74.14801 198.919998 74.294983 198.770004 74.445007 C 198.513 74.195007 198.201004 74.057007 197.834 74.057007 C 197.468994 74.057007 197.156998 74.195007 196.897995 74.446991 C 196.748993 74.298004 196.602005 74.151001 196.455002 74.003998 C 197.160995 73.263 198.432007 73.20401 199.214005 74.001007 Z"/>
                                </g>
                                <path id="path33" fill="#ffffff" stroke="none" d="M 198.235992 74.847992 C 198.235992 75.070007 198.056 75.248993 197.835007 75.248993 C 197.613998 75.248993 197.434006 75.069 197.434006 74.847992 C 197.434006 74.627014 197.613998 74.446991 197.835007 74.446991 C 198.056 74.446991 198.235992 74.627014 198.235992 74.847992 Z"/>
                            </g>
                            <g id="g23">
                                <path id="path34" fill="#ffffff" stroke="none" d="M 173.449997 73.080017 C 173.449997 72.437988 173.970993 71.916992 174.613998 71.916992 C 175.257004 71.916992 175.776993 72.437988 175.776993 73.080017 C 175.776993 73.722992 175.255997 74.244019 174.613998 74.244019 C 173.970993 74.242981 173.449997 73.721985 173.449997 73.080017 Z"/>
                                <path id="path35" fill="#ffffff" stroke="none" d="M 177.115005 73.080017 C 177.115005 72.437988 177.636002 71.916992 178.279007 71.916992 C 178.921997 71.916992 179.442001 72.437988 179.442001 73.080017 C 179.442001 73.722992 178.921005 74.244019 178.279007 74.244019 C 177.636002 74.242981 177.115005 73.721985 177.115005 73.080017 Z"/>
                                <path id="path36" fill="#ffffff" stroke="none" d="M 180.779999 73.080017 C 180.779999 72.437988 181.300995 71.916992 181.942993 71.916992 C 182.585999 71.916992 183.106003 72.437988 183.106003 73.080017 C 183.106003 73.722992 182.585007 74.244019 181.942993 74.244019 C 181.300995 74.242981 180.779999 73.721985 180.779999 73.080017 Z"/>
                                <path id="path37" fill="#ffffff" stroke="none" d="M 184.445007 73.080017 C 184.445007 72.437988 184.966003 71.916992 185.608002 71.916992 C 186.251007 71.916992 186.772003 72.437988 186.772003 73.080017 C 186.772003 73.722992 186.251007 74.244019 185.608002 74.244019 C 184.966003 74.242981 184.445007 73.721985 184.445007 73.080017 Z"/>
                                <path id="path38" fill="#ffffff" stroke="none" d="M 188.108994 73.080017 C 188.108994 72.437988 188.630005 71.916992 189.272003 71.916992 C 189.914993 71.916992 190.434998 72.437988 190.434998 73.080017 C 190.434998 73.722992 189.914001 74.244019 189.272003 74.244019 C 188.630005 74.242981 188.108994 73.721985 188.108994 73.080017 Z"/>
                            </g>
                            <g id="g24">
                                <path id="path39" fill="#ffffff" stroke="none" d="M 324.397003 75.619019 L 314.924988 75.619019 L 314.924988 71.231018 L 324.397003 71.231018 L 324.397003 75.619019 Z M 315.40799 75.136993 L 323.915009 75.136993 L 323.915009 71.714996 L 315.40799 71.714996 L 315.40799 75.136993 Z"/>
                                <path id="path40" fill="#ffffff" stroke="none" d="M 315.710999 71.97699 L 321.816986 71.97699 L 321.816986 74.873993 L 315.710999 74.873993 Z"/>
                                <path id="path41" fill="#ffffff" stroke="none" d="M 324.403015 72.252014 L 325.246002 72.252014 L 325.246002 74.598999 L 324.403015 74.598999 Z"/>
                            </g>
                        </g>
                        <g id="g25">
                            <path id="path42" fill="#ffffff" stroke="none" d="M 178.636993 101.888 L 173.449997 97.028015 L 178.636993 92.169006 L 179.442001 93.026001 L 175.171005 97.028015 L 179.442001 101.031006 Z"/>
                            <path id="path43" fill="#ffffff" stroke="none" d="M 321.64801 102.239014 L 318.151001 102.239014 L 318.151001 101.023987 C 318.151001 100.92099 318.091003 100.826996 317.994995 100.778015 C 317.860992 100.709991 317.731995 100.634003 317.606995 100.553009 C 317.514008 100.490997 317.402008 100.488007 317.313995 100.539001 L 316.257996 101.147003 L 314.510986 98.119019 L 315.566986 97.51001 C 315.653992 97.459991 315.70401 97.359985 315.699005 97.25 C 315.695007 97.174011 315.692993 97.101013 315.692993 97.027008 C 315.692993 96.95401 315.695007 96.880981 315.697998 96.807983 C 315.70401 96.694 315.653015 96.593018 315.56601 96.542999 L 314.510986 95.936005 L 316.257996 92.90799 L 317.312012 93.515991 C 317.398987 93.567017 317.511993 93.562988 317.604004 93.502991 C 317.730011 93.42099 317.859985 93.346008 317.994995 93.277008 C 318.09201 93.227997 318.151001 93.134003 318.151001 93.031006 L 318.151001 91.81601 L 321.64801 91.81601 L 321.64801 93.031006 C 321.64801 93.134003 321.708008 93.227997 321.803009 93.277008 C 321.937988 93.346008 322.067993 93.42099 322.194 93.502991 C 322.285004 93.562988 322.397003 93.567017 322.485992 93.515991 L 323.540009 92.90799 L 325.286987 95.936005 L 324.230011 96.544006 C 324.143005 96.593994 324.09201 96.694 324.096985 96.806 C 324.101013 96.880981 324.102997 96.95401 324.102997 97.027008 C 324.102997 97.100006 324.101013 97.173004 324.097992 97.244995 C 324.09201 97.358002 324.141998 97.457001 324.227997 97.507019 L 325.286011 98.117981 L 323.540009 101.145996 L 322.484009 100.537994 C 322.394012 100.487 322.28299 100.492004 322.192993 100.550995 C 322.067993 100.632996 321.937988 100.708984 321.803009 100.777008 C 321.707001 100.825012 321.64801 100.919983 321.64801 101.02301 L 321.64801 102.239014 Z M 318.901001 101.489014 L 320.89801 101.489014 L 320.89801 101.023987 C 320.89801 100.636993 321.11499 100.286987 321.463989 100.109985 C 321.572998 100.054016 321.679993 99.992004 321.782013 99.924988 C 322.110992 99.709991 322.523987 99.695984 322.859009 99.890015 L 323.264008 100.122986 L 324.261993 98.393982 L 323.852997 98.15799 C 323.522003 97.96701 323.32901 97.602997 323.348999 97.209991 L 323.352997 97.028015 L 323.347992 96.84201 C 323.328003 96.450989 323.522003 96.087006 323.855011 95.894989 L 324.260986 95.661011 L 323.264008 93.932007 L 322.860992 94.165009 C 322.524994 94.358002 322.112 94.345001 321.783997 94.130981 C 321.681 94.063995 321.575012 94.002014 321.463989 93.945984 C 321.11499 93.768982 320.89801 93.419006 320.89801 93.031006 L 320.89801 92.56601 L 318.901001 92.56601 L 318.901001 93.031006 C 318.901001 93.417999 318.68399 93.768005 318.334991 93.945984 C 318.223999 94.002014 318.117004 94.063995 318.015015 94.130981 C 317.686005 94.346008 317.273987 94.359985 316.937988 94.165009 L 316.535004 93.932007 L 315.537994 95.661011 L 315.941986 95.893982 C 316.274994 96.085999 316.467987 96.450012 316.449005 96.843994 L 316.444 97.027008 L 316.449005 97.214996 C 316.468994 97.605011 316.274994 97.968018 315.942993 98.160004 L 315.537994 98.393982 L 316.535004 100.122986 L 316.940002 99.890015 C 317.277008 99.695984 317.688995 99.709991 318.016998 99.924988 C 318.118988 99.992004 318.22699 100.054016 318.335999 100.109985 C 318.684998 100.287994 318.902008 100.638 318.902008 101.023987 L 318.902008 101.489014 Z M 319.89801 99.651001 C 318.451996 99.651001 317.274994 98.473999 317.274994 97.028015 C 317.274994 95.580017 318.451996 94.403015 319.89801 94.403015 C 321.346008 94.403015 322.523987 95.580994 322.523987 97.028015 C 322.523987 98.475006 321.346985 99.651001 319.89801 99.651001 Z M 319.89801 95.153015 C 318.86499 95.153015 318.024994 95.994019 318.024994 97.028015 C 318.024994 98.061005 318.86499 98.901001 319.89801 98.901001 C 320.932007 98.901001 321.773987 98.061005 321.773987 97.028015 C 321.773987 95.994019 320.933014 95.153015 319.89801 95.153015 Z"/>
                        </g>
                    </g>
                    <g id="g26">
                        <path id="path44" fill="#e1d6dc" stroke="none" d="M 312.433014 301.678009 L 187.149002 301.678009 L 187.149002 195.697021 L 249.781998 155.923004 L 312.433014 195.697021 Z"/>
                        <path id="path45" fill="#000000" stroke="none" opacity="0.2" d="M 312.433014 301.678009 L 187.149002 301.678009 L 187.149002 195.697021 L 249.781998 155.923004 L 312.433014 195.697021 Z"/>
                        <g id="g27">
                            <path id="path46" fill="#ebebeb" stroke="none" d="M 305.368011 293.569 L 194.214005 293.569 L 194.214005 150.882019 L 276.746002 150.882019 L 305.368011 178.070007 Z"/>
                            <path id="path47" fill="#dbdbdb" stroke="none" d="M 276.746002 150.882019 L 305.368011 178.070007 L 276.746002 178.070007 Z"/>
                            <g id="g28">
                                <path id="path48" fill="#dbdbdb" stroke="none" d="M 266.858398 178.486908 L 205.058395 178.486908 L 205.058395 174.822906 L 266.858398 174.822906 Z"/>
                            </g>
                            <g id="g29">
                                <path id="path49" fill="#dbdbdb" stroke="none" d="M 266.858398 187.734711 L 205.058395 187.734711 L 205.058395 184.070709 L 266.858398 184.070709 Z"/>
                            </g>
                            <g id="g30">
                                <path id="path50" fill="#dbdbdb" stroke="none" d="M 266.858398 196.982697 L 205.058395 196.982697 L 205.058395 193.318695 L 266.858398 193.318695 Z"/>
                            </g>
                            <g id="g31">
                                <path id="path51" fill="#dbdbdb" stroke="none" d="M 295.606293 206.230804 L 205.058319 206.230804 L 205.058319 202.566803 L 295.606293 202.566803 Z"/>
                            </g>
                            <g id="g32">
                                <path id="path52" fill="#dbdbdb" stroke="none" d="M 295.606293 215.478912 L 205.058319 215.478912 L 205.058319 211.814911 L 295.606293 211.814911 Z"/>
                            </g>
                            <g id="g33">
                                <path id="path53" fill="#dbdbdb" stroke="none" d="M 295.606293 224.726898 L 205.058319 224.726898 L 205.058319 221.062897 L 295.606293 221.062897 Z"/>
                            </g>
                            <g id="g34">
                                <path id="path54" fill="#dbdbdb" stroke="none" d="M 295.606293 233.974884 L 205.058319 233.974884 L 205.058319 230.310883 L 295.606293 230.310883 Z"/>
                            </g>
                            <g id="g35">
                                <path id="path55" fill="#dbdbdb" stroke="none" d="M 295.606293 243.222992 L 205.058319 243.222992 L 205.058319 239.55899 L 295.606293 239.55899 Z"/>
                            </g>
                            <g id="g36">
                                <path id="path56" fill="#dbdbdb" stroke="none" d="M 295.606293 252.4711 L 205.058319 252.4711 L 205.058319 248.807114 L 295.606293 248.807114 Z"/>
                            </g>
                            <g id="g37">
                                <path id="path57" fill="#dbdbdb" stroke="none" d="M 295.606293 261.719116 L 205.058319 261.719116 L 205.058319 258.055115 L 295.606293 258.055115 Z"/>
                            </g>
                            <g id="g38">
                                <path id="path58" fill="#dbdbdb" stroke="none" d="M 295.606293 270.967102 L 205.058319 270.967102 L 205.058319 267.303101 L 295.606293 267.303101 Z"/>
                            </g>
                            <g id="g39">
                                <path id="path59" fill="#dbdbdb" stroke="none" d="M 295.606293 280.21521 L 205.058319 280.21521 L 205.058319 276.551208 L 295.606293 276.551208 Z"/>
                            </g>
                        </g>
                        <path id="path60" fill="#e1d6dc" stroke="none" d="M 312.433014 222.225006 L 312.433014 301.678009 L 187.149002 301.678009 L 187.149002 222.225006 C 192.529999 225.27301 197.817001 228.471008 203.141006 231.593994 C 208.447006 234.773987 213.751999 237.953003 219.020004 241.188995 C 224.889999 244.764008 230.759995 248.395004 236.610992 252.063995 C 236.667999 252.026001 236.742996 251.988998 236.798996 251.951004 C 236.742996 251.988007 236.705002 252.044998 236.649002 252.082993 C 241.031998 254.811005 245.416 257.558014 249.800003 260.304993 C 254.164993 257.558014 258.549011 254.792007 262.932007 252.082993 C 262.876007 252.044998 262.838013 251.988998 262.782013 251.951004 C 262.838989 251.988007 262.914001 252.026001 262.970001 252.044998 C 268.821014 248.395004 274.673004 244.764008 280.561005 241.169983 C 285.82901 237.953003 291.115997 234.753998 296.421997 231.593994 C 301.765991 228.471008 307.053009 225.27301 312.433014 222.225006 Z"/>
                        <g id="g40" opacity="0.2">
                            <path id="path61" fill="#000000" stroke="none" d="M 312.433014 222.225006 C 307.372009 225.781006 302.21701 229.186005 297.118011 232.686005 C 291.980988 236.109985 286.825989 239.533997 281.652008 242.921021 C 276.252014 246.457993 270.834015 249.957001 265.415009 253.438004 C 265.246002 253.550995 265.095001 253.664001 264.925995 253.776993 C 260.127991 256.843994 255.311996 259.911011 250.494995 262.97699 L 249.779999 263.410004 L 249.084 262.97699 C 244.268005 259.910004 239.470001 256.842987 234.671997 253.757996 C 234.503006 253.664001 234.332993 253.550995 234.164001 253.438004 C 228.725998 249.957001 223.307999 246.457993 217.908005 242.901978 C 212.753006 239.533997 207.598007 236.109985 202.460999 232.686005 C 197.362 229.186005 192.207001 225.781006 187.145996 222.225006 C 192.526993 225.27301 197.813995 228.471008 203.138 231.593994 C 208.444 234.773987 213.748993 237.953003 219.016998 241.188995 C 224.886993 244.764008 230.757004 248.395004 236.608002 252.063995 C 236.626999 252.063995 236.626999 252.063995 236.645996 252.082993 C 241.029007 254.811005 245.412994 257.558014 249.796997 260.304993 C 254.162003 257.558014 258.54599 254.792007 262.928986 252.082993 C 262.947998 252.044998 262.947998 252.044998 262.96701 252.044998 C 268.817993 248.395004 274.670013 244.764008 280.558014 241.169983 C 285.825989 237.953003 291.113007 234.753998 296.419006 231.593994 C 301.765991 228.471008 307.053009 225.27301 312.433014 222.225006 Z"/>
                            <path id="path62" fill="#000000" stroke="none" d="M 236.798996 251.951996 C 236.742996 251.988998 236.705002 252.046005 236.649002 252.084 C 235.990005 252.647995 235.332001 253.212997 234.673004 253.757996 C 231.531006 256.411011 228.313995 258.950989 225.039993 261.415985 C 221.050995 264.463989 216.968002 267.380005 212.867004 270.277008 C 208.746994 273.118011 204.608002 275.940002 200.373993 278.648987 C 196.141006 281.358002 191.869995 284.010986 187.447998 286.437988 C 191.248993 283.108002 195.199005 280.003998 199.188004 276.973999 C 203.195007 273.925995 207.278 271.01001 211.360992 268.112 C 215.5 265.252014 219.639008 262.429993 223.871994 259.721008 C 227.240005 257.557007 230.664001 255.431 234.164001 253.436996 C 234.973007 252.966995 235.781998 252.514999 236.610001 252.063004 C 236.667999 252.026993 236.742996 251.988998 236.798996 251.951996 Z"/>
                            <path id="path63" fill="#000000" stroke="none" d="M 312.131989 286.438995 C 307.710999 284.011993 303.42099 281.359009 299.207001 278.649994 C 294.973999 275.94101 290.834991 273.118011 286.695007 270.278015 C 282.592987 267.381012 278.510986 264.463989 274.522003 261.416992 C 271.266998 258.951996 268.049988 256.431 264.927002 253.778 C 264.25 253.214005 263.591003 252.649002 262.932007 252.085007 C 262.876007 252.046997 262.838013 251.990997 262.782013 251.953003 C 262.838989 251.990005 262.914001 252.028 262.970001 252.046997 C 263.798004 252.516998 264.606995 252.968994 265.415985 253.438995 C 268.915985 255.432999 272.321014 257.55899 275.708008 259.722992 C 279.94101 262.432007 284.079987 265.253998 288.200012 268.114014 C 292.302002 271.010986 296.384003 273.928009 300.372986 276.976013 C 304.381012 280.003998 308.332001 283.108002 312.131989 286.438995 Z"/>
                        </g>
                    </g>
                    <g id="g41">
                        <path id="path64" fill="#ebebeb" stroke="none" d="M 187.149002 330.641998 L 205.404999 330.641998 L 205.404999 348.89801 L 187.149002 348.89801 Z"/>
                        <path id="path65" fill="#ebebeb" stroke="none" d="M 213.830994 330.641998 L 232.087006 330.641998 L 232.087006 348.89801 L 213.830994 348.89801 Z"/>
                        <path id="path66" fill="#ebebeb" stroke="none" d="M 240.513 330.641998 L 258.769012 330.641998 L 258.769012 348.89801 L 240.513 348.89801 Z"/>
                        <path id="path67" fill="#ebebeb" stroke="none" d="M 267.195007 330.641998 L 285.450989 330.641998 L 285.450989 348.89801 L 267.195007 348.89801 Z"/>
                        <path id="path68" fill="#ebebeb" stroke="none" d="M 293.877014 330.641998 L 312.132996 330.641998 L 312.132996 348.89801 L 293.877014 348.89801 Z"/>
                    </g>
                    <g id="g42">
                        <path id="path69" fill="#ebebeb" stroke="none" d="M 186.587006 358.518005 L 311.571014 358.518005 L 311.571014 360.488007 L 186.587006 360.488007 Z"/>
                        <path id="path70" fill="#ebebeb" stroke="none" d="M 186.587006 363.722992 L 311.571014 363.722992 L 311.571014 365.692993 L 186.587006 365.692993 Z"/>
                        <path id="path71" fill="#ebebeb" stroke="none" d="M 186.587006 368.927002 L 311.571014 368.927002 L 311.571014 370.897003 L 186.587006 370.897003 Z"/>
                        <path id="path72" fill="#ebebeb" stroke="none" d="M 186.587006 374.131989 L 244.608002 374.131989 L 244.608002 376.10199 L 186.587006 376.10199 Z"/>
                    </g>
                </g>
            </g>
        </g>
    </g>
    <g id="PaperPlanes">
        <g id="g43">
            <g id="g44">
                <path id="path73" fill="#263238" stroke="none" d="M 187.625 176.994019 L 186.199997 176.990997 L 186.203995 176.240997 L 187.625 176.244019 C 188.475006 176.242981 189.332993 176.23999 190.199005 176.233002 L 190.205002 176.983002 C 189.337006 176.98999 188.477005 176.992981 187.625 176.994019 Z M 181.195999 176.924011 C 179.841003 176.893982 178.505997 176.85498 177.192993 176.804993 L 177.220993 176.056 C 178.531006 176.104004 179.860992 176.143982 181.212997 176.174011 L 181.195999 176.924011 Z M 195.210007 176.904999 L 195.192001 176.154999 C 196.507004 176.125 197.837997 176.087006 199.186996 176.041992 L 199.212006 176.791992 C 197.860992 176.837006 196.526993 176.873993 195.210007 176.904999 Z M 204.214005 176.591003 L 204.179001 175.84198 C 205.492996 175.781006 206.824005 175.713013 208.169998 175.638 L 208.212006 176.386993 C 206.862 176.462006 205.529999 176.529999 204.214005 176.591003 Z M 172.192001 176.567993 C 170.837006 176.489014 169.503998 176.398987 168.195007 176.299011 L 168.253006 175.550995 C 169.557007 175.651001 170.884003 175.73999 172.235992 175.819 L 172.192001 176.567993 Z M 213.205994 176.080017 L 213.156006 175.332001 C 214.470001 175.244019 215.798996 175.149994 217.143005 175.049011 L 217.199005 175.796997 C 215.852005 175.89801 214.520996 175.992004 213.205994 176.080017 Z M 163.207993 175.85498 C 161.854004 175.71698 160.526993 175.567017 159.227005 175.403992 L 159.320007 174.660004 C 160.615005 174.822021 161.936996 174.971985 163.285004 175.109009 L 163.207993 175.85498 Z M 222.186005 175.398987 L 222.123001 174.651978 C 223.436005 174.541016 224.764008 174.423004 226.104996 174.299988 L 226.173004 175.046997 C 224.830994 175.171021 223.501999 175.287994 222.186005 175.398987 Z M 154.266006 174.708008 C 152.919006 174.497009 151.602005 174.272003 150.313995 174.03302 L 150.451004 173.296021 C 151.731995 173.533997 153.042007 173.757019 154.382004 173.96698 L 154.266006 174.708008 Z M 231.153 174.569 L 231.078003 173.822998 C 232.391006 173.690979 233.716003 173.554016 235.054001 173.411011 L 235.134003 174.156982 C 233.794006 174.299988 232.466995 174.437988 231.153 174.569 Z M 240.108002 173.608002 L 240.020996 172.863007 L 241.059006 172.742981 C 242.033997 172.630005 243.009995 172.507996 243.985001 172.377991 L 244.085007 173.121002 C 243.104996 173.252014 242.125 173.373993 241.145004 173.488007 L 240.108002 173.608002 Z M 145.404007 173.023987 C 144.080002 172.723999 142.768997 172.403015 141.507996 172.070007 L 141.699005 171.343994 C 142.951004 171.674988 144.253006 171.994019 145.569 172.291992 L 145.404007 173.023987 Z M 249.044006 172.388 L 248.923996 171.64801 C 250.240005 171.434998 251.552994 171.207001 252.863007 170.964996 L 253 171.701996 C 251.684006 171.945007 250.365005 172.174011 249.044006 172.388 Z M 257.920013 170.72998 L 257.765991 169.997009 C 259.067993 169.721985 260.368988 169.434998 261.665985 169.135986 L 261.834015 169.865997 C 260.532013 170.166992 259.22699 170.455017 257.920013 170.72998 Z M 136.690994 170.671997 C 135.397003 170.26001 134.119003 169.822021 132.893997 169.371002 L 133.154007 168.666992 C 134.369003 169.11499 135.636002 169.549011 136.919006 169.957001 L 136.690994 170.671997 Z M 266.700012 168.684021 L 266.514008 167.957001 C 267.803986 167.627991 269.089996 167.287994 270.372009 166.936005 L 270.569 167.660004 C 269.283997 168.011993 267.993988 168.354004 266.700012 168.684021 Z M 128.238998 167.489014 C 126.999001 166.940002 125.778999 166.359009 124.612 165.760986 L 124.954002 165.093994 C 126.108002 165.684998 127.316002 166.260986 128.542999 166.804016 L 128.238998 167.489014 Z M 275.380005 166.287994 L 275.166992 165.569 C 276.44101 165.190979 277.712006 164.802979 278.97699 164.406982 L 279.201996 165.122986 C 277.933014 165.52002 276.65799 165.908997 275.380005 166.287994 Z M 283.966003 163.578003 L 283.727997 162.867004 C 284.996002 162.442993 286.256012 162.01001 287.509003 161.570007 L 287.756989 162.278015 C 286.5 162.718994 285.237 163.151978 283.966003 163.578003 Z M 120.232002 163.296997 C 119.081001 162.585999 117.954002 161.837006 116.883003 161.067993 L 117.320999 160.458984 C 118.377998 161.21698 119.488998 161.957001 120.625999 162.65802 L 120.232002 163.296997 Z M 292.471008 160.575989 L 292.209015 159.872986 C 293.463013 159.40802 294.709015 158.934998 295.946991 158.457001 L 296.21701 159.156006 C 294.97699 159.635986 293.72699 160.109009 292.471008 160.575989 Z M 112.934998 157.950989 C 111.924004 157.072021 110.935997 156.14502 110.000999 155.195007 L 110.535004 154.669006 C 111.457001 155.60498 112.43 156.518982 113.427002 157.38501 L 112.934998 157.950989 Z M 300.876007 157.312988 L 300.595001 156.617981 C 301.835999 156.11499 303.069 155.606018 304.289001 155.093018 L 304.579987 155.783997 C 303.355011 156.298004 302.121002 156.807983 300.876007 157.312988 Z M 309.18399 153.807983 L 308.882996 153.121002 C 310.112 152.582001 311.329987 152.039978 312.535004 151.494995 L 312.843994 152.179016 C 311.636993 152.725006 310.415009 153.268982 309.18399 153.807983 Z M 106.651001 151.437988 C 105.765999 150.330994 105.010002 149.192017 104.405998 148.052002 L 105.068001 147.700012 C 105.651001 148.799011 106.380997 149.898987 107.237 150.968994 L 106.651001 151.437988 Z M 317.394989 150.083008 L 317.076996 149.403992 C 318.295013 148.832001 319.498993 148.257996 320.687012 147.684021 L 321.013 148.359985 C 319.821991 148.934998 318.615997 149.51001 317.394989 150.083008 Z M 325.509003 146.14801 L 325.173004 145.47699 C 326.381989 144.872986 327.571014 144.27002 328.740997 143.669006 L 329.083008 144.335999 C 327.911011 144.938995 326.720001 145.542999 325.509003 146.14801 Z M 102.707001 143.247986 C 102.542 142.348022 102.458 141.427979 102.458 140.511993 C 102.458 140.063995 102.477997 139.615997 102.515999 139.171021 L 103.263 139.234985 C 103.225998 139.658997 103.208 140.085022 103.208 140.511993 C 103.208 141.382019 103.288002 142.257019 103.444 143.113007 L 102.707001 143.247986 Z M 333.523987 142.018982 L 333.171997 141.356995 C 334.372009 140.720001 335.548004 140.088989 336.696991 139.463989 L 337.054993 140.122986 C 335.903992 140.748993 334.72699 141.380981 333.523987 142.018982 Z M 341.444 137.700989 L 341.076996 137.046997 C 342.269012 136.377991 343.431 135.718994 344.556 135.072021 L 344.928986 135.721985 C 343.802002 136.369995 342.639008 137.029999 341.444 137.700989 Z M 104.405998 134.505981 L 103.708 134.231995 C 104.179001 133.033997 104.790001 131.812988 105.523003 130.60498 L 106.164001 130.994019 C 105.453003 132.166016 104.861 133.348022 104.405998 134.505981 Z M 349.261993 133.197998 L 348.878998 132.552002 C 350.072998 131.845001 351.218994 131.158997 352.312988 130.494995 L 352.701996 131.136993 C 351.605011 131.800995 350.458008 132.489014 349.261993 133.197998 Z M 356.971008 128.507019 L 356.572998 127.871002 C 357.79599 127.106995 358.924988 126.389008 359.955994 125.726013 L 360.362 126.356995 C 359.326996 127.022003 358.195007 127.740997 356.971008 128.507019 Z M 109.061996 126.997009 L 108.488998 126.514008 C 109.317001 125.531006 110.239998 124.535004 111.231003 123.554993 L 111.758003 124.088013 C 110.782997 125.050995 109.875999 126.029999 109.061996 126.997009 Z M 364.55899 123.606995 L 364.143005 122.984009 C 366.296997 121.544006 367.453003 120.721008 367.455994 120.718994 L 367.891998 121.32901 C 367.890991 121.32901 366.727997 122.15799 364.55899 123.606995 Z M 115.446999 120.757996 L 114.968002 120.181 C 115.959999 119.358002 117.026001 118.52301 118.136002 117.701996 L 118.582001 118.304993 C 117.482002 119.117981 116.428001 119.942993 115.446999 120.757996 Z M 122.674004 115.459991 L 122.264 114.832001 C 123.361 114.11499 124.508003 113.39801 125.671997 112.701996 L 126.056999 113.346008 C 124.902 114.036987 123.764 114.747986 122.674004 115.459991 Z M 130.395004 110.88501 L 130.039993 110.225006 C 131.199005 109.601013 132.399994 108.981018 133.608994 108.382019 L 133.942001 109.054016 C 132.740997 109.648987 131.546997 110.265015 130.395004 110.88501 Z M 138.459 106.937012 L 138.154999 106.251007 C 139.397995 105.700989 140.643997 105.175995 141.860001 104.692017 L 142.136993 105.388 C 140.931 105.869995 139.692993 106.390991 138.459 106.937012 Z"/>
                <g id="g45">
                    <path id="path74" fill="#e1d6dc" stroke="none" d="M 373.487 103.635986 L 367.671997 121.023987 L 380.563995 110.394989 L 430.410004 90.807983 Z"/>
                    <path id="path75" fill="#000000" stroke="none" opacity="0.1" d="M 373.487 103.635986 L 367.671997 121.023987 L 380.563995 110.394989 L 430.410004 90.807983 Z"/>
                    <path id="path76" fill="#263238" stroke="none" d="M 382.359985 114.363007 L 367.671997 121.023987 L 380.563995 110.394989 Z"/>
                    <path id="path77" fill="#e1d6dc" stroke="none" d="M 380.563995 110.394989 L 430.410004 90.807983 L 390.196014 132.187012 Z"/>
                    <path id="path78" fill="#e1d6dc" stroke="none" d="M 373.487 103.635986 L 352.213013 90.686005 L 430.410004 90.807983 Z"/>
                </g>
            </g>
            <g id="g46">
                <g id="g47">
                    <path id="path79" fill="#263238" stroke="none" d="M 353.613007 312.537994 C 353.136993 312.080994 352.653992 311.622986 352.165985 311.165009 L 352.678009 310.618011 C 353.170013 311.078003 353.656006 311.537994 354.132996 311.997009 L 353.613007 312.537994 Z"/>
                    <path id="path80" fill="#263238" stroke="none" d="M 347.032013 391.799011 L 347.011993 391.049011 C 348.352997 391.015991 349.690002 390.933014 350.988007 390.802002 L 351.062012 391.548004 C 349.747009 391.681 348.390991 391.765015 347.032013 391.799011 Z M 341.985992 391.713989 C 340.671997 391.639008 339.319 391.520996 337.96701 391.362 L 338.053009 390.618011 C 339.390991 390.77301 340.729004 390.890015 342.028992 390.966003 L 341.985992 391.713989 Z M 356.058014 390.78299 L 355.903992 390.049011 C 357.226013 389.772003 358.519989 389.436005 359.751007 389.050995 L 359.976013 389.768005 C 358.721008 390.158997 357.402008 390.501007 356.058014 390.78299 Z M 332.984009 390.606995 C 331.696014 390.368988 330.368988 390.088989 329.040009 389.777008 L 329.212006 389.046997 C 330.528992 389.356995 331.845001 389.634003 333.121002 389.868988 L 332.984009 390.606995 Z M 324.174011 388.485992 C 322.903992 388.113007 321.612 387.70401 320.334015 387.270996 L 320.574005 386.559998 C 321.842987 386.98999 323.125 387.395996 324.38501 387.766998 L 324.174011 388.485992 Z M 364.692993 387.934998 L 364.372986 387.256989 C 365.585999 386.684998 366.755005 386.042999 367.846985 385.35199 L 368.248993 385.984985 C 367.130005 386.694 365.93399 387.351013 364.692993 387.934998 Z M 315.605011 385.54599 C 314.367004 385.061005 313.114014 384.545013 311.882996 384.013 L 312.179993 383.325012 C 313.403992 383.852997 314.64801 384.36499 315.877991 384.846985 L 315.605011 385.54599 Z M 372.286011 382.917999 L 371.782013 382.363007 C 372.764008 381.470001 373.678009 380.506012 374.502014 379.497009 L 375.084015 379.971985 C 374.235992 381.01001 373.29599 382.001007 372.286011 382.917999 Z M 307.303986 381.928009 C 306.113007 381.356995 304.911011 380.757996 303.701996 380.134003 L 304.04599 379.467987 C 305.25 380.088013 306.442993 380.683014 307.628998 381.252014 L 307.303986 381.928009 Z M 299.281006 377.748993 C 298.104004 377.087006 296.946014 376.412994 295.806 375.727997 L 296.192993 375.084991 C 297.326996 375.765991 298.47699 376.436005 299.64801 377.093994 L 299.281006 377.748993 Z M 377.902008 375.75 L 377.242004 375.394989 C 377.859985 374.247986 378.399994 373.033997 378.847992 371.783997 L 379.553009 372.037994 C 379.093994 373.321014 378.537994 374.570007 377.902008 375.75 Z M 291.545013 373.070007 C 290.414001 372.337006 289.300995 371.59201 288.203003 370.838013 L 288.628998 370.221008 C 289.721008 370.971985 290.828003 371.712006 291.953003 372.441986 L 291.545013 373.070007 Z M 284.110992 367.927002 C 283.028992 367.128998 281.960999 366.321991 280.906006 365.502014 L 281.367004 364.910004 C 282.415985 365.725006 283.477997 366.528992 284.556 367.322998 L 284.110992 367.927002 Z M 380.834991 367.130005 L 380.096008 367.002991 C 380.313995 365.727997 380.45401 364.402008 380.511993 363.065002 L 381.261993 363.097992 C 381.201996 364.466003 381.058014 365.822998 380.834991 367.130005 Z M 276.984009 362.368011 C 275.946991 361.514008 274.92099 360.651001 273.904999 359.777008 L 274.393005 359.209015 C 275.406006 360.07901 276.427002 360.937988 277.459991 361.787994 L 276.984009 362.368011 Z M 380.376007 358.106995 C 380.252014 356.816986 380.059998 355.493988 379.803986 354.173004 L 380.540009 354.031006 C 380.800995 355.375 380.997009 356.721985 381.122009 358.035004 L 380.376007 358.106995 Z M 270.139008 356.458008 C 269.145996 355.562988 268.161987 354.658997 267.18399 353.746002 L 267.696014 353.196991 C 268.67099 354.108002 269.652008 355.007996 270.640991 355.901001 L 270.139008 356.458008 Z M 263.554993 350.296997 C 262.595001 349.367004 261.640015 348.431 260.687012 347.485992 L 261.216003 346.953003 C 262.165009 347.895996 263.118011 348.830994 264.075989 349.759003 L 263.554993 350.296997 Z M 378.595001 349.350006 C 378.218994 348.118011 377.781006 346.851013 377.290985 345.584991 L 377.98999 345.313995 C 378.485992 346.596985 378.931 347.881012 379.311005 349.131012 L 378.595001 349.350006 Z M 257.14801 343.929993 C 256.213989 342.980011 255.279007 342.022003 254.345001 341.058014 L 254.884003 340.536987 C 255.815994 341.498993 256.747986 342.454987 257.683014 343.404999 L 257.14801 343.929993 Z M 375.303986 341.015015 C 374.735992 339.835999 374.118988 338.644012 373.468994 337.470001 L 374.125 337.106995 C 374.781006 338.294006 375.403992 339.498993 375.979004 340.688995 L 375.303986 341.015015 Z M 250.865005 337.446014 C 249.944 336.483002 249.020996 335.515991 248.095001 334.544006 L 248.638 334.026001 C 249.563995 334.998993 250.485992 335.964996 251.406998 336.925995 L 250.865005 337.446014 Z M 370.915009 333.179993 C 370.216003 332.083008 369.467987 330.966003 368.691986 329.862 L 369.304993 329.429993 C 370.088013 330.544006 370.84201 331.67099 371.546997 332.778015 L 370.915009 333.179993 Z M 244.639999 330.911987 L 241.873001 328.006989 L 242.416 327.489014 L 245.182999 330.394012 L 244.639999 330.911987 Z M 365.71701 325.847992 C 364.920013 324.825989 364.072998 323.781006 363.200012 322.740997 L 363.773987 322.259003 C 364.653015 323.306 365.506012 324.359009 366.308014 325.388 L 365.71701 325.847992 Z M 238.406998 324.389008 C 237.485001 323.432007 236.557007 322.471008 235.619995 321.507996 L 236.158005 320.984985 C 237.095993 321.950012 238.024994 322.911011 238.947006 323.869995 L 238.406998 324.389008 Z M 359.903992 318.979004 C 359.020996 318.010986 358.106995 317.040009 357.161987 316.066986 L 357.699005 315.544006 C 358.649994 316.52301 359.570007 317.5 360.459015 318.473999 L 359.903992 318.979004 Z M 232.112 317.931 C 231.177994 316.988007 230.235001 316.040985 229.281998 315.09201 L 229.811005 314.561005 C 230.766006 315.511993 231.710999 316.459015 232.645996 317.403992 L 232.112 317.931 Z M 225.707993 311.584015 C 224.755997 310.658997 223.792999 309.734009 222.817993 308.808014 L 223.335007 308.265015 C 224.311996 309.194 225.276993 310.119995 226.231003 311.045013 L 225.707993 311.584015 Z M 219.162994 305.386993 C 218.188995 304.489014 217.201996 303.588989 216.201004 302.688995 L 216.703003 302.131989 C 217.705994 303.033997 218.695007 303.936005 219.671997 304.835999 L 219.162994 305.386993 Z M 212.449997 299.372986 C 211.451004 298.503998 210.436996 297.63501 209.408997 296.765991 L 209.893005 296.194 C 210.923004 297.065002 211.938995 297.936005 212.942001 298.807007 L 212.449997 299.372986 Z M 205.557999 293.569 C 204.531998 292.731995 203.490997 291.895996 202.434006 291.061005 L 202.899002 290.472992 C 203.957993 291.309998 205.001999 292.14801 206.031006 292.987 L 205.557999 293.569 Z M 198.479004 287.994995 C 197.425003 287.192993 196.356995 286.393005 195.272995 285.593994 L 195.718002 284.98999 C 196.804001 285.790985 197.876007 286.593994 198.932007 287.397003 L 198.479004 287.994995 Z M 191.216995 282.662994 C 190.136993 281.898987 189.042007 281.135986 187.932007 280.373993 L 188.356003 279.755005 C 189.470001 280.519012 190.567993 281.283997 191.651001 282.052002 L 191.216995 282.662994 Z M 183.778 277.57901 C 182.673004 276.851013 181.552994 276.125 180.417007 275.399994 L 180.820007 274.766998 C 181.959 275.493988 183.082001 276.221985 184.190002 276.950989 L 183.778 277.57901 Z M 176.171997 272.75 C 175.044006 272.05899 173.899994 271.369995 172.740997 270.683014 L 173.123993 270.037994 C 174.285995 270.72699 175.432999 271.417999 176.563995 272.109009 L 176.171997 272.75 Z M 168.412003 268.169006 C 167.261993 267.515015 166.097 266.860992 164.917007 266.210999 L 165.279007 265.554993 C 166.462006 266.207001 167.630005 266.860992 168.783005 267.516998 L 168.412003 268.169006 Z M 160.511002 263.833008 C 159.341003 263.214996 158.156998 262.598999 156.957993 261.984009 L 157.300003 261.31601 C 158.501999 261.932007 159.688995 262.549988 160.862 263.170013 L 160.511002 263.833008 Z M 152.483994 259.737 C 151.296005 259.152008 150.093994 258.570007 148.878006 257.98999 L 149.201004 257.312012 C 150.419998 257.894012 151.623993 258.477997 152.815002 259.062988 L 152.483994 259.737 Z M 144.341995 255.869003 C 143.138 255.317001 141.921005 254.766998 140.690002 254.220993 L 140.994995 253.535004 C 142.229004 254.084 143.449005 254.634003 144.654999 255.186996 L 144.341995 255.869003 Z M 136.097 252.222 C 134.878006 251.701996 133.645996 251.184006 132.401001 250.667007 L 132.688004 249.975006 C 133.936005 250.492996 135.169998 251.011002 136.391006 251.533005 L 136.097 252.222 Z"/>
                    <path id="path81" fill="#263238" stroke="none" d="M 127.519997 248.686005 C 126.902 248.440002 126.281998 248.195007 125.656998 247.949997 L 125.93 247.251999 C 126.555 247.496994 127.178001 247.742996 127.796997 247.988998 L 127.519997 248.686005 Z"/>
                </g>
                <g id="g48">
                    <path id="path82" fill="#e1d6dc" stroke="none" d="M 129.895004 236.15802 L 136.503998 254.307999 L 122.630997 243.473999 L 69.589996 224.238007 Z"/>
                    <path id="path83" fill="#000000" stroke="none" opacity="0.1" d="M 129.895004 236.15802 L 136.503998 254.307999 L 122.630997 243.473999 L 69.589996 224.238007 Z"/>
                    <path id="path84" fill="#263238" stroke="none" d="M 120.849998 247.701996 L 136.503998 254.307999 L 122.630997 243.473999 Z"/>
                    <path id="path85" fill="#e1d6dc" stroke="none" d="M 122.630997 243.473999 L 69.589996 224.238007 L 113.095001 266.692993 Z"/>
                    <path id="path86" fill="#e1d6dc" stroke="none" d="M 129.895004 236.15802 L 151.938004 221.927002 L 69.589996 224.238007 Z"/>
                </g>
            </g>
        </g>
    </g>
    <g id="SpeechBubble">
        <g id="g49">
            <path id="path87" fill="#a6a6a6" stroke="none" d="M 330.158661 77.000153 C 349.201569 81.424133 361.052521 100.447815 356.62854 119.490723 C 352.204559 138.5336 333.180878 150.384552 314.13797 145.960571 C 295.095093 141.53656 283.24411 122.512939 287.668091 103.470032 C 292.092102 84.427124 311.115753 72.576172 330.158661 77.000153 Z"/>
            <g id="g50">
                <g id="g51">
                    <path id="path88" fill="#ffffff" stroke="none" d="M 297.987 96.174988 L 346.311005 96.174988 L 346.311005 126.820984 L 297.987 126.820984 Z"/>
                    <g id="g52">
                        <path id="path89" fill="#dbdbdb" stroke="none" d="M 346.311005 96.174988 C 344.359009 98.041992 342.371002 99.82901 340.403992 101.666016 C 338.423004 103.463013 336.43399 105.260986 334.438995 107.037994 C 332.355988 108.894989 330.265991 110.731018 328.175995 112.55899 C 328.110992 112.617981 328.053009 112.677002 327.987 112.737 C 326.136993 114.346985 324.278992 115.957001 322.42099 117.56601 L 322.144989 117.792999 L 321.876007 117.56601 C 320.018005 115.955994 318.167999 114.346008 316.316986 112.72699 C 316.252014 112.678009 316.186005 112.617981 316.121002 112.55899 C 314.023987 110.731995 311.93399 108.894989 309.851013 107.028015 C 307.863007 105.26001 305.873993 103.463013 303.893005 101.666016 C 301.925995 99.82901 299.937988 98.041016 297.985992 96.174988 C 300.062012 97.774994 302.101013 99.45401 304.153992 101.093018 C 306.200989 102.761993 308.247009 104.431 310.278992 106.130005 C 312.542999 108.005981 314.807007 109.911987 317.063995 111.838013 C 317.071014 111.838013 317.071014 111.838013 317.07901 111.847992 C 318.769989 113.279999 320.460999 114.721985 322.151001 116.164001 C 323.834991 114.721985 325.526001 113.269989 327.216003 111.847992 C 327.222992 111.828003 327.222992 111.828003 327.230011 111.828003 C 329.487 109.911987 331.743988 108.005981 334.015015 106.119995 C 336.046997 104.431 338.085999 102.752014 340.132996 101.093018 C 342.196014 99.453003 344.234985 97.773987 346.311005 96.174988 Z"/>
                        <path id="path90" fill="#dbdbdb" stroke="none" d="M 317.138 112.536011 C 317.115997 112.549988 317.10199 112.571991 317.079987 112.587006 C 316.825989 112.804993 316.571991 113.022003 316.317993 113.233002 C 315.105988 114.255981 313.86499 115.235992 312.60199 116.187012 C 311.063995 117.363007 309.489014 118.487 307.907013 119.605011 C 306.317993 120.700989 304.721008 121.789001 303.088013 122.833984 C 301.454987 123.878998 299.808014 124.902008 298.10199 125.838013 C 299.567993 124.553009 301.09201 123.356018 302.630005 122.187988 C 304.175995 121.011993 305.751007 119.888 307.325012 118.769989 C 308.921997 117.666992 310.518005 116.57901 312.151001 115.53299 C 313.450012 114.699005 314.770996 113.877991 316.121002 113.109009 C 316.433014 112.928009 316.744995 112.752991 317.063995 112.57901 C 317.087006 112.565002 317.115997 112.549988 317.138 112.536011 Z"/>
                        <path id="path91" fill="#dbdbdb" stroke="none" d="M 346.195007 125.838013 C 344.48999 124.902008 342.834991 123.878998 341.209015 122.833984 C 339.575989 121.789001 337.980011 120.700012 336.382996 119.605011 C 334.800995 118.487 333.226013 117.363007 331.687988 116.187012 C 330.432007 115.235992 329.191986 114.264008 327.987 113.240997 C 327.726013 113.02301 327.471985 112.806 327.217987 112.588013 C 327.196014 112.574005 327.182007 112.552002 327.160004 112.536987 C 327.182007 112.550995 327.210999 112.56601 327.233002 112.572998 C 327.552002 112.753998 327.864014 112.929016 328.175995 113.109985 C 329.526001 113.878998 330.838989 114.699005 332.145996 115.533997 C 333.778992 116.57901 335.375 117.667999 336.964996 118.770996 C 338.546997 119.889008 340.122009 121.014008 341.660004 122.188995 C 343.204987 123.356018 344.729004 124.553009 346.195007 125.838013 Z"/>
                    </g>
                </g>
            </g>
            <g id="g53">
                <path id="path92" fill="#e1d6dc" stroke="none" d="M 347.882477 92.440033 C 349.941833 96.218384 348.548309 100.950745 344.769958 103.010101 C 340.991638 105.069458 336.259277 103.675903 334.199921 99.897583 C 332.140594 96.119263 333.534088 91.386902 337.312408 89.327545 C 341.090759 87.268188 345.823151 88.661713 347.882477 92.440033 Z"/>
                <g id="g54">
                    <path id="path93" fill="#ffffff" stroke="none" d="M 340.165985 97.88501 L 340.165985 91.544006 C 340.165985 91.072998 340.558014 90.681 341.029999 90.681 C 341.5 90.681 341.877014 91.072998 341.877014 91.544006 L 341.877014 97.88501 C 341.877014 98.372009 341.5 98.747986 341.029999 98.747986 C 340.558014 98.747986 340.165985 98.372009 340.165985 97.88501 Z M 341.029999 101.667999 C 340.558014 101.667999 340.165985 101.291992 340.165985 100.804993 L 340.165985 100.490997 C 340.165985 100.019989 340.558014 99.627991 341.029999 99.627991 C 341.5 99.627991 341.877014 100.019989 341.877014 100.490997 L 341.877014 100.804993 C 341.877014 101.291992 341.5 101.667999 341.029999 101.667999 Z"/>
                </g>
            </g>
        </g>
    </g>
</svg>
