<?xml version="1.0" encoding="UTF-8"?>
<svg version="1.1" xmlns="http://www.w3.org/2000/svg" width="280" height="227">
<path d="M0 0 C3.42311089 1.14103696 6.71168112 2.51794079 10 4 C10 4.66 10 5.32 10 6 C10.8559375 6.24878906 11.711875 6.49757813 12.59375 6.75390625 C16.26424522 8.09666769 19.21016914 9.83435813 22.5 11.9375 C26.58110059 14.5367724 30.63700842 16.90392422 35 19 C35 19.66 35 20.32 35 21 C35.81984375 21.23203125 36.6396875 21.4640625 37.484375 21.703125 C41.73738188 23.27201198 45.3832165 25.40886269 49.25 27.75 C50.00579346 28.20173584 50.76158691 28.65347168 51.5402832 29.11889648 C53.03367105 30.01223812 54.52566573 30.9079137 56.01611328 31.80615234 C57.61916112 32.77082179 59.22854396 33.72495923 60.83984375 34.67578125 C61.61457031 35.13339844 62.38929688 35.59101562 63.1875 36.0625 C63.97253906 36.51109375 64.75757813 36.9596875 65.56640625 37.421875 C68 39 68 39 70.58984375 41.328125 C80.2874369 49.26592325 90.43641392 48.970886 102.45166016 48.83911133 C110.90863432 48.75814873 118.32580427 49.16290214 126 53 C126 53.66 126 54.32 126 55 C127.65 55.66 129.3 56.32 131 57 C131 57.66 131 58.32 131 59 C131.99 59.33 132.98 59.66 134 60 C135.53515625 61.8203125 135.53515625 61.8203125 137.0625 64.125 C137.56910156 64.87007813 138.07570313 65.61515625 138.59765625 66.3828125 C142.77608266 74.18098993 143.25188834 83.35058963 142 92 C139.65163479 99.32042121 136.28787515 104.62582598 130 109 C129.39285156 109.65613281 128.78570312 110.31226563 128.16015625 110.98828125 C125.70945888 113.27057627 123.71848828 114.1150768 120.5625 115.1875 C119.63566406 115.51105469 118.70882812 115.83460938 117.75390625 116.16796875 C115.17778078 116.94628751 112.63995692 117.49194327 110 118 C109.96241577 119.87196045 109.96241577 119.87196045 109.92407227 121.78173828 C109.82805297 126.52707793 109.72835356 131.27233502 109.62768555 136.01757812 C109.58505519 138.0497847 109.5433504 140.08201096 109.50268555 142.11425781 C109.383115 148.07211889 109.24597472 154.02913914 109.08233643 159.98596191 C109.02680757 162.01867216 108.97459431 164.05147533 108.92547607 166.08435059 C108.84921187 169.07512009 108.75342296 172.06466517 108.65234375 175.0546875 C108.63200577 175.95293243 108.61166779 176.85117737 108.5907135 177.77664185 C108.38145682 183.21434144 107.46582192 187.13601465 105 192 C104.34 192 103.68 192 103 192 C102.64421875 192.90492188 102.64421875 192.90492188 102.28125 193.828125 C99.84360138 197.96023668 95.38258694 199.45536796 91 201 C84.59924735 202.02412042 79.68690694 200.96708188 74 198 C74 197.34 74 196.68 74 196 C73.01 195.67 72.02 195.34 71 195 C69.6484375 193.2578125 69.6484375 193.2578125 68.375 191.125 C67.94960937 190.42632812 67.52421875 189.72765625 67.0859375 189.0078125 C65.11227279 185.35866265 64.8717218 182.46173537 64.8671875 178.3828125 C64.86525391 177.23127686 64.86332031 176.07974121 64.86132812 174.89331055 C64.86583984 173.64976807 64.87035156 172.40622559 64.875 171.125 C64.87693359 169.85116455 64.87886719 168.5773291 64.88085938 167.26489258 C64.94154297 153.49898827 65.42661683 139.7535713 66 126 C63.14421787 126.59928619 61.69822505 127.2011833 59.1875 128.875 C56.53059658 130.64626895 54.10375591 131.83878899 51.16796875 133.03125 C45.95611267 135.36015146 41.0037288 138.2600028 36 141 C35.07832031 141.49757812 34.15664062 141.99515625 33.20703125 142.5078125 C28.69909528 144.94489458 24.2338241 147.43761551 19.8046875 150.015625 C-1.52659789 162.38961739 -1.52659789 162.38961739 -11.1875 160.1875 C-14.02316702 159.30425945 -16.45251591 158.48603239 -19 157 C-19 156.34 -19 155.68 -19 155 C-19.57621094 154.77828125 -20.15242188 154.5565625 -20.74609375 154.328125 C-23.686152 152.59568166 -25.0934006 150.52722689 -27.0625 147.75 C-27.73410156 146.81671875 -28.40570313 145.8834375 -29.09765625 144.921875 C-35.29070632 135.40975703 -38.17819843 124.87542508 -40.75 113.9375 C-41.08427002 112.55498047 -41.08427002 112.55498047 -41.42529297 111.14453125 C-42.65272957 105.72953992 -43.1789335 100.7494423 -43.0390625 95.19995117 C-42.99091729 92.48847304 -43.29412905 89.87678832 -43.625 87.1875 C-45.3035352 66.13175697 -40.81848733 40.80517459 -30.5 22.25 C-29.61828125 20.64898437 -29.61828125 20.64898437 -28.71875 19.015625 C-28.1515625 18.02046875 -27.584375 17.0253125 -27 16 C-26.52175781 15.12085938 -26.04351562 14.24171875 -25.55078125 13.3359375 C-21.75607437 7.61998104 -15.18088733 3.71356029 -9 1 C-6.00486634 -0.49756683 -3.24704238 -0.45376091 0 0 Z M-13 17 C-14.58859736 19.28413036 -15.90356517 21.37745119 -17.1875 23.8125 C-17.51685547 24.40353516 -17.84621094 24.99457031 -18.18554688 25.60351562 C-22.08196404 32.70692425 -24.65517624 39.83558359 -26.5625 47.6875 C-26.77068359 48.50927734 -26.97886719 49.33105469 -27.19335938 50.17773438 C-29.8012271 60.73183229 -31.37265363 70.98980859 -31.3125 81.875 C-31.30758545 82.94927246 -31.3026709 84.02354492 -31.29760742 85.13037109 C-30.98971578 106.61962863 -28.58402848 128.05553601 -13.6875 144.5625 C-9.59020876 146.75407438 -5.62579601 147.33199493 -1 147 C1.6202978 145.98185667 2.88528542 144.94776343 5 143 C5 142.34 5 141.68 5 141 C5.66 141 6.32 141 7 141 C15.59035208 125.16220447 20.54772829 110.02425857 22 92 C22.06171387 91.2766748 22.12342773 90.55334961 22.18701172 89.80810547 C23.70180375 71.29710578 23.58100851 51.29417566 16 34 C15.62875 33.02160156 15.2575 32.04320313 14.875 31.03515625 C12.67720006 25.36895329 10.91388007 20.83522347 6 17 C5.05125 16.236875 4.1025 15.47375 3.125 14.6875 C-3.30782302 11.21377557 -7.50335544 12.67465582 -13 17 Z M28 30 C26.70203582 32.03963045 26.70203582 32.03963045 27.70703125 34.58203125 C28.25423828 36.18111328 28.25423828 36.18111328 28.8125 37.8125 C32.47905358 49.35582213 33.44040729 60.99036378 33.92089844 73.02197266 C33.98993225 74.748244 34.07558128 76.47383488 34.1640625 78.19921875 C34.61962435 94.04034665 31.48034172 109.88122986 27 125 C26.30860025 127.66130965 25.65406189 130.32924727 25 133 C28.49746014 131.66971606 31.73139391 130.1311604 35 128.3125 C35.95519531 127.78527344 36.91039062 127.25804687 37.89453125 126.71484375 C38.91933594 126.14894531 39.94414062 125.58304687 41 125 C53.21610956 118.35363252 53.21610956 118.35363252 58.5625 115.75 C61.87187886 114.19255881 61.87187886 114.19255881 64.0625 112.4375 C66.82696605 110.38644454 69.82266837 109.31889237 73 108 C74.91064798 106.08935202 74.25337913 102.59997989 74.31640625 99.9921875 C74.33718735 99.27451202 74.35796844 98.55683655 74.37937927 97.81741333 C74.42276361 96.28572782 74.46379016 94.75397405 74.50268555 93.22216797 C74.56101966 90.93308967 74.62647922 88.64431145 74.69335938 86.35546875 C74.77928796 83.3671265 74.8451146 80.37923598 74.89794922 77.39013672 C74.9514663 74.48938258 75.07250324 71.60342141 75.24658203 68.70751953 C75.80549269 62.15229405 75.80549269 62.15229405 73.84399414 56.09814453 C72.09344099 54.54729239 72.09344099 54.54729239 68.75 53.125 C67.58984375 52.52945313 66.4296875 51.93390625 65.234375 51.3203125 C62.19139841 49.98390624 62.19139841 49.98390624 59.640625 49.4296875 C59.09921875 49.28789063 58.5578125 49.14609375 58 49 C57.505 48.01 57.505 48.01 57 47 C55.48009914 45.98000374 53.91695414 45.02399265 52.3359375 44.1015625 C51.37816406 43.53953125 50.42039062 42.9775 49.43359375 42.3984375 C48.42425781 41.81320313 47.41492188 41.22796875 46.375 40.625 C45.38886719 40.0475 44.40273437 39.47 43.38671875 38.875 C38.27526369 35.88592481 33.14729048 32.92689066 28 30 Z M87 61 C86.28548816 75.67789752 85.85369572 90.3045475 86 105 C90.3749437 105.05826088 94.74978698 105.09368457 99.125 105.125 C100.98125 105.15013672 100.98125 105.15013672 102.875 105.17578125 C104.67324219 105.18544922 104.67324219 105.18544922 106.5078125 105.1953125 C107.60754395 105.20578613 108.70727539 105.21625977 109.84033203 105.22705078 C116.42510629 104.75387507 120.36089219 102.41819791 125 98 C125 97.34 125 96.68 125 96 C125.66 96 126.32 96 127 96 C130.11622779 87.81990205 131.00452678 81.48136031 127.9921875 73.08984375 C126.54590912 70.04354875 124.61894565 68.08172603 122 66 C121.34 66 120.68 66 120 66 C120 65.34 120 64.68 120 64 C109.12855921 60.21862929 98.36116315 60.68866964 87 61 Z M79 117 C77.6446464 121.01278431 77.93528685 125.06811997 78 129.25 C78.08754464 136.86991336 77.93317709 144.46099407 77.640625 152.07421875 C77.57646316 153.87661483 77.51266418 155.67902387 77.44921875 157.48144531 C77.35328635 160.20419677 77.25053947 162.92575923 77.12548828 165.64733887 C77.00753556 168.23199566 76.91558724 170.81650007 76.828125 173.40234375 C76.78560608 174.17978439 76.74308716 174.95722504 76.69927979 175.75822449 C76.55439616 180.98570195 77.51460884 183.85805748 81 188 C84.66056713 189.51059872 88.26223334 189.24592222 92 188 C92 187.34 92 186.68 92 186 C92.66 186 93.32 186 94 186 C95.62466764 182.40007854 96.28126391 179.47450712 96.4140625 175.53515625 C96.45273438 174.49512451 96.49140625 173.45509277 96.53125 172.38354492 C96.5621875 171.2876001 96.593125 170.19165527 96.625 169.0625 C96.66367188 167.93239502 96.70234375 166.80229004 96.7421875 165.63793945 C96.95809453 158.9347008 97.03990927 152.25272824 96.96484375 145.546875 C97.02013916 139.96818244 97.36874423 134.40313246 97.73242188 128.83666992 C97.97804319 124.70245377 98.11610344 121.04277467 97 117 C94.3753399 116.80569145 91.75053235 116.61926762 89.125 116.4375 C88.37863281 116.38142578 87.63226563 116.32535156 86.86328125 116.26757812 C82.80938458 115.86611075 82.80938458 115.86611075 79 117 Z " fill="#000000" transform="translate(133,25)"/>
<path d="M0 0 C1.81640625 1.79296875 1.81640625 1.79296875 3 4 C2.6875 7.75 2.6875 7.75 2 11 C-1.02845033 12.08158941 -3.88363276 12.98100127 -7.0625 13.5 C-10.08497834 14.0144644 -12.34504367 14.45127548 -15 16 C-16.31685277 18.9502491 -16.31685277 18.9502491 -17 22 C-17.33 22.66 -17.66 23.32 -18 24 C-18.43457866 30.81937545 -18.43457866 30.81937545 -16 37 C-10.95664969 41.1308615 -5.2029547 43.23388095 1 45 C2.25 51.625 2.25 51.625 0 55 C-7.0057129 56.87653024 -11.60983788 55.07553721 -18 52 C-18.68449219 51.70738281 -19.36898437 51.41476563 -20.07421875 51.11328125 C-25.46239793 47.99841093 -29.02903348 41.81190925 -31 36.0625 C-33.08310902 27.62590849 -31.42682142 20.27135187 -27.6484375 12.55078125 C-21.95893171 3.74687774 -10.52237496 -2.33626157 0 0 Z " fill="#000000" transform="translate(143,78)"/>
<path d="M0 0 C1.47551331 0.00349709 1.47551331 0.00349709 2.98083496 0.00706482 C5.05876345 0.01680009 7.13666546 0.03858206 9.21435547 0.0715332 C12.39460552 0.12091295 15.57330756 0.13301245 18.75390625 0.13867188 C20.77345395 0.15275937 22.79298823 0.16896431 24.8125 0.1875 C25.76362671 0.1928627 26.71475342 0.1982254 27.69470215 0.20375061 C29.02628357 0.2277317 29.02628357 0.2277317 30.38476562 0.25219727 C31.16323853 0.26283707 31.94171143 0.27347687 32.74377441 0.28443909 C35.23223003 0.5999209 36.82098922 1.16234784 38.90625 2.55859375 C39.90625 5.93359375 39.90625 5.93359375 39.90625 9.55859375 C38.50537109 11.75415039 38.50537109 11.75415039 35.90625 13.55859375 C32.71075827 14.14438315 29.56127558 14.09509223 26.3203125 14.0546875 C24.91850235 14.05687035 24.91850235 14.05687035 23.4883728 14.05909729 C21.51305015 14.05743874 19.53771451 14.04588238 17.5625 14.02514648 C14.54891602 13.99626307 11.53709957 14.00452451 8.5234375 14.01757812 C6.60155399 14.01133818 4.67967603 14.00294524 2.7578125 13.9921875 C1.41222763 13.99659096 1.41222763 13.99659096 0.03945923 14.00108337 C-5.05550707 13.92483172 -8.71080607 13.45367339 -13.09375 10.55859375 C-14.21875 8.18359375 -14.21875 8.18359375 -14.09375 5.55859375 C-10.78489504 -0.75932452 -6.39622171 -0.13135267 0 0 Z " fill="#000000" transform="translate(22.09375,100.44140625)"/>
<path d="M0 0 C2.4375 1.4375 2.4375 1.4375 4.0625 4.1875 C4.4375 7.4375 4.4375 7.4375 3.5078125 9.1640625 C2.1875 10.8125 2.1875 10.8125 -0.5625 13.4375 C-1.2225 13.4375 -1.8825 13.4375 -2.5625 13.4375 C-2.8925 14.4275 -3.2225 15.4175 -3.5625 16.4375 C-9.02761628 21.4375 -9.02761628 21.4375 -11.5625 21.4375 C-12.2225 22.7575 -12.8825 24.0775 -13.5625 25.4375 C-14.2225 25.4375 -14.8825 25.4375 -15.5625 25.4375 C-15.8925 26.4275 -16.2225 27.4175 -16.5625 28.4375 C-18.02569274 29.70560038 -19.49413489 30.96939805 -21.01171875 32.171875 C-22.72383222 33.5195856 -22.72383222 33.5195856 -24.6875 35.625 C-26.6293333 37.50210552 -28.00185214 38.58395071 -30.5625 39.4375 C-33.1875 39.25 -33.1875 39.25 -35.5625 38.4375 C-37.74288095 35.16692857 -38.19496755 34.23230531 -37.5625 30.4375 C-35.25 27.8125 -35.25 27.8125 -32.5625 25.4375 C-32.005625 24.839375 -31.44875 24.24125 -30.875 23.625 C-29.5625 22.4375 -29.5625 22.4375 -27.5625 22.4375 C-27.2325 21.4475 -26.9025 20.4575 -26.5625 19.4375 C-21.09738372 14.4375 -21.09738372 14.4375 -18.5625 14.4375 C-17.9025 13.1175 -17.2425 11.7975 -16.5625 10.4375 C-15.9025 10.4375 -15.2425 10.4375 -14.5625 10.4375 C-14.2325 9.4475 -13.9025 8.4575 -13.5625 7.4375 C-11.8203125 5.6484375 -11.8203125 5.6484375 -9.6875 3.8125 C-8.98882812 3.20148438 -8.29015625 2.59046875 -7.5703125 1.9609375 C-4.8757451 -0.08357862 -3.34147354 -0.73349419 0 0 Z " fill="#000000" transform="translate(68.5625,133.5625)"/>
<path d="M0 0 C0.94875 0.04125 1.8975 0.0825 2.875 0.125 C2.875 0.785 2.875 1.445 2.875 2.125 C3.473125 2.351875 4.07125 2.57875 4.6875 2.8125 C7.46695736 4.48017441 8.27892638 6.33187116 9.875 9.125 C10.8959375 10.115 10.8959375 10.115 11.9375 11.125 C13.875 13.125 13.875 13.125 14.9375 15.8125 C15.4015625 16.9571875 15.4015625 16.9571875 15.875 18.125 C16.865 18.455 17.855 18.785 18.875 19.125 C19.90111949 20.77571396 20.89808143 22.44470006 21.875 24.125 C22.514375 24.74375 23.15375 25.3625 23.8125 26 C26.89191527 29.17273088 29.74640492 32.81028853 30 37.375 C28.20381653 40.16906317 25.91364817 40.9703137 22.875 42.125 C21.39 41.63 21.39 41.63 19.875 41.125 C19.875 40.465 19.875 39.805 19.875 39.125 C18.39 38.63 18.39 38.63 16.875 38.125 C15.84888051 36.47428604 14.85191857 34.80529994 13.875 33.125 C13.194375 32.465 12.51375 31.805 11.8125 31.125 C9.875 29.125 9.875 29.125 8.875 26.5 C7.63484874 23.55464076 6.65882698 23.47473429 3.875 22.125 C2.82607762 20.48868108 1.82593297 18.82014137 0.875 17.125 C0.400625 16.650625 -0.07375 16.17625 -0.5625 15.6875 C-2.90508015 13.34491985 -4.52915138 11.03172427 -6.125 8.125 C-5.93560219 3.20065702 -5.41489298 0.21659572 0 0 Z " fill="#000000" transform="translate(41.125,39.875)"/>
</svg>
